<mxfile host="app.diagrams.net" agent="Mozilla/5.0 (Windows NT 10.0; Win64; x64) AppleWebKit/537.36 (KHTML, like Gecko) Chrome/129.0.0.0 Safari/537.36" version="24.7.17">
  <diagram name="Page-1" id="e07gFsqNKkBccE_G-x46">
    <mxGraphModel dx="2074" dy="1132" grid="1" gridSize="10" guides="1" tooltips="1" connect="1" arrows="1" fold="1" page="1" pageScale="1" pageWidth="850" pageHeight="1100" math="0" shadow="0">
      <root>
        <mxCell id="0" />
        <mxCell id="1" parent="0" />
        <mxCell id="WEwv4fRzX0CLK9vP8wzi-1" value="" style="strokeWidth=1;shadow=0;dashed=0;align=center;html=1;shape=mxgraph.mockup.containers.browserWindow;rSize=0;strokeColor=#666666;strokeColor2=#008cff;strokeColor3=#c4c4c4;mainText=,;recursiveResize=0;" parent="1" vertex="1">
          <mxGeometry x="35" y="190" width="780" height="880" as="geometry" />
        </mxCell>
        <mxCell id="WEwv4fRzX0CLK9vP8wzi-2" value="Page 1" style="strokeWidth=1;shadow=0;dashed=0;align=center;html=1;shape=mxgraph.mockup.containers.anchor;fontSize=17;fontColor=#666666;align=left;whiteSpace=wrap;" parent="WEwv4fRzX0CLK9vP8wzi-1" vertex="1">
          <mxGeometry x="60" y="12" width="110" height="26" as="geometry" />
        </mxCell>
        <mxCell id="WEwv4fRzX0CLK9vP8wzi-3" value="www.nelsonsmerch.com" style="strokeWidth=1;shadow=0;dashed=0;align=center;html=1;shape=mxgraph.mockup.containers.anchor;rSize=0;fontSize=17;fontColor=#666666;align=left;" parent="WEwv4fRzX0CLK9vP8wzi-1" vertex="1">
          <mxGeometry x="130" y="60" width="250" height="26" as="geometry" />
        </mxCell>
        <mxCell id="WEwv4fRzX0CLK9vP8wzi-4" value="" style="swimlane;shape=mxgraph.bootstrap.anchor;strokeColor=#666666;fillColor=#ffffff;fontColor=#666666;fontStyle=0;childLayout=stackLayout;horizontal=0;startSize=0;horizontalStack=1;resizeParent=1;resizeParentMax=0;resizeLast=0;collapsible=0;marginBottom=0;whiteSpace=wrap;html=1;" parent="WEwv4fRzX0CLK9vP8wzi-1" vertex="1">
          <mxGeometry y="110" width="500" height="50" as="geometry" />
        </mxCell>
        <mxCell id="WEwv4fRzX0CLK9vP8wzi-5" value="Home" style="text;strokeColor=#008CFF;align=center;verticalAlign=middle;spacingLeft=10;spacingRight=10;overflow=hidden;points=[[0,0.5],[1,0.5]];portConstraint=eastwest;rotatable=0;whiteSpace=wrap;html=1;shape=mxgraph.mockup.leftButton;rSize=10;fillColor=#008CFF;fontColor=#ffffff;fontSize=17;fontStyle=1;" parent="WEwv4fRzX0CLK9vP8wzi-4" vertex="1">
          <mxGeometry width="125" height="50" as="geometry" />
        </mxCell>
        <mxCell id="WEwv4fRzX0CLK9vP8wzi-6" value="Shop" style="text;strokeColor=inherit;align=center;verticalAlign=middle;spacingLeft=10;spacingRight=10;overflow=hidden;points=[[0,0.5],[1,0.5]];portConstraint=eastwest;rotatable=0;whiteSpace=wrap;html=1;rSize=5;fillColor=inherit;fontColor=inherit;fontSize=17;fontStyle=1;" parent="WEwv4fRzX0CLK9vP8wzi-4" vertex="1">
          <mxGeometry x="125" width="125" height="50" as="geometry" />
        </mxCell>
        <mxCell id="WEwv4fRzX0CLK9vP8wzi-7" value="Contact" style="text;strokeColor=inherit;align=center;verticalAlign=middle;spacingLeft=10;spacingRight=10;overflow=hidden;points=[[0,0.5],[1,0.5]];portConstraint=eastwest;rotatable=0;whiteSpace=wrap;html=1;rSize=5;fillColor=inherit;fontColor=inherit;fontSize=17;fontStyle=1;" parent="WEwv4fRzX0CLK9vP8wzi-4" vertex="1">
          <mxGeometry x="250" width="125" height="50" as="geometry" />
        </mxCell>
        <mxCell id="WEwv4fRzX0CLK9vP8wzi-8" value="About" style="text;strokeColor=inherit;align=center;verticalAlign=middle;spacingLeft=10;spacingRight=10;overflow=hidden;points=[[0,0.5],[1,0.5]];portConstraint=eastwest;rotatable=0;whiteSpace=wrap;html=1;shape=mxgraph.mockup.rightButton;rSize=10;fillColor=inherit;fontColor=inherit;fontSize=17;fontStyle=1;" parent="WEwv4fRzX0CLK9vP8wzi-4" vertex="1">
          <mxGeometry x="375" width="125" height="50" as="geometry" />
        </mxCell>
        <mxCell id="WEwv4fRzX0CLK9vP8wzi-10" value="" style="verticalLabelPosition=bottom;shadow=0;dashed=0;align=center;html=1;verticalAlign=top;strokeWidth=1;shape=mxgraph.mockup.graphics.simpleIcon;strokeColor=#999999;" parent="WEwv4fRzX0CLK9vP8wzi-1" vertex="1">
          <mxGeometry y="160" width="70" height="70" as="geometry" />
        </mxCell>
        <mxCell id="WEwv4fRzX0CLK9vP8wzi-11" value="Logo" style="text;html=1;align=center;verticalAlign=middle;whiteSpace=wrap;rounded=0;" parent="WEwv4fRzX0CLK9vP8wzi-1" vertex="1">
          <mxGeometry x="5" y="180" width="60" height="30" as="geometry" />
        </mxCell>
        <mxCell id="WEwv4fRzX0CLK9vP8wzi-14" value="" style="rounded=1;whiteSpace=wrap;html=1;" parent="WEwv4fRzX0CLK9vP8wzi-1" vertex="1">
          <mxGeometry x="5" y="560" width="335" height="60" as="geometry" />
        </mxCell>
        <mxCell id="WEwv4fRzX0CLK9vP8wzi-28" value="" style="rounded=1;whiteSpace=wrap;html=1;" parent="WEwv4fRzX0CLK9vP8wzi-1" vertex="1">
          <mxGeometry x="5" y="620" width="335" height="60" as="geometry" />
        </mxCell>
        <mxCell id="WEwv4fRzX0CLK9vP8wzi-29" value="" style="rounded=1;whiteSpace=wrap;html=1;" parent="WEwv4fRzX0CLK9vP8wzi-1" vertex="1">
          <mxGeometry x="5" y="680" width="335" height="60" as="geometry" />
        </mxCell>
        <mxCell id="WEwv4fRzX0CLK9vP8wzi-30" value="First Name:" style="strokeWidth=1;shadow=0;dashed=0;align=center;html=1;shape=mxgraph.mockup.forms.anchor;align=right;spacingRight=2;fontColor=#666666;" parent="WEwv4fRzX0CLK9vP8wzi-1" vertex="1">
          <mxGeometry x="360" y="560" width="50" height="18" as="geometry" />
        </mxCell>
        <mxCell id="WEwv4fRzX0CLK9vP8wzi-31" value="" style="strokeWidth=1;shadow=0;dashed=0;align=center;html=1;shape=mxgraph.mockup.forms.rrect;fillColor=#ffffff;rSize=0;fontColor=#666666;align=left;spacingLeft=3;strokeColor=#999999;" parent="WEwv4fRzX0CLK9vP8wzi-1" vertex="1">
          <mxGeometry x="410" y="560" width="350" height="18" as="geometry" />
        </mxCell>
        <mxCell id="WEwv4fRzX0CLK9vP8wzi-32" value="Last Name:" style="strokeWidth=1;shadow=0;dashed=0;align=center;html=1;shape=mxgraph.mockup.forms.anchor;align=right;spacingRight=2;fontColor=#666666;" parent="WEwv4fRzX0CLK9vP8wzi-1" vertex="1">
          <mxGeometry x="360" y="595" width="50" height="18" as="geometry" />
        </mxCell>
        <mxCell id="WEwv4fRzX0CLK9vP8wzi-33" value="" style="strokeWidth=1;shadow=0;dashed=0;align=center;html=1;shape=mxgraph.mockup.forms.rrect;fillColor=#ffffff;rSize=0;fontColor=#666666;align=left;spacingLeft=3;strokeColor=#999999;" parent="WEwv4fRzX0CLK9vP8wzi-1" vertex="1">
          <mxGeometry x="410" y="595" width="350" height="18" as="geometry" />
        </mxCell>
        <mxCell id="WEwv4fRzX0CLK9vP8wzi-34" value="Country:" style="strokeWidth=1;shadow=0;dashed=0;align=center;html=1;shape=mxgraph.mockup.forms.anchor;align=right;spacingRight=2;fontColor=#666666;" parent="WEwv4fRzX0CLK9vP8wzi-1" vertex="1">
          <mxGeometry x="360" y="630" width="50" height="18" as="geometry" />
        </mxCell>
        <mxCell id="WEwv4fRzX0CLK9vP8wzi-35" value="" style="strokeWidth=1;shadow=0;dashed=0;align=center;html=1;shape=mxgraph.mockup.forms.rrect;fillColor=#ffffff;rSize=0;fontColor=#666666;align=left;spacingLeft=3;strokeColor=#999999;" parent="WEwv4fRzX0CLK9vP8wzi-1" vertex="1">
          <mxGeometry x="410" y="630" width="350" height="18" as="geometry" />
        </mxCell>
        <mxCell id="WEwv4fRzX0CLK9vP8wzi-36" value="Subject:" style="strokeWidth=1;shadow=0;dashed=0;align=center;html=1;shape=mxgraph.mockup.forms.anchor;align=right;spacingRight=2;fontColor=#666666;" parent="WEwv4fRzX0CLK9vP8wzi-1" vertex="1">
          <mxGeometry x="360" y="665" width="50" height="18" as="geometry" />
        </mxCell>
        <mxCell id="WEwv4fRzX0CLK9vP8wzi-40" value="" style="strokeWidth=1;shadow=0;dashed=0;align=center;html=1;shape=mxgraph.mockup.forms.rrect;fillColor=#ffffff;rSize=0;fontColor=#666666;align=left;spacingLeft=3;strokeColor=#999999;verticalAlign=top;whiteSpace=wrap;" parent="WEwv4fRzX0CLK9vP8wzi-1" vertex="1">
          <mxGeometry x="410" y="660" width="350" height="125" as="geometry" />
        </mxCell>
        <mxCell id="WEwv4fRzX0CLK9vP8wzi-41" value="" style="verticalLabelPosition=bottom;shadow=0;dashed=0;align=center;html=1;verticalAlign=top;strokeWidth=1;shape=mxgraph.mockup.misc.map;" parent="WEwv4fRzX0CLK9vP8wzi-1" vertex="1">
          <mxGeometry x="45" y="750" width="250" height="210" as="geometry" />
        </mxCell>
        <mxCell id="WEwv4fRzX0CLK9vP8wzi-42" value="&lt;span style=&quot;color: rgba(0, 0, 0, 0); font-family: monospace; font-size: 0px; text-align: start;&quot;&gt;%3CmxGraphModel%3E%3Croot%3E%3CmxCell%20id%3D%220%22%2F%3E%3CmxCell%20id%3D%221%22%20parent%3D%220%22%2F%3E%3CmxCell%20id%3D%222%22%20value%3D%22%22%20style%3D%22rounded%3D1%3BwhiteSpace%3Dwrap%3Bhtml%3D1%3B%22%20vertex%3D%221%22%20parent%3D%221%22%3E%3CmxGeometry%20x%3D%2240%22%20y%3D%22660%22%20width%3D%22335%22%20height%3D%2260%22%20as%3D%22geometry%22%2F%3E%3C%2FmxCell%3E%3C%2Froot%3E%3C%2FmxGraphModel%3E&lt;/span&gt;" style="verticalLabelPosition=bottom;shadow=0;dashed=0;align=center;html=1;verticalAlign=top;strokeWidth=1;shape=mxgraph.mockup.graphics.simpleIcon;strokeColor=#999999;" parent="WEwv4fRzX0CLK9vP8wzi-1" vertex="1">
          <mxGeometry x="410" y="900" width="50" height="50" as="geometry" />
        </mxCell>
        <mxCell id="WEwv4fRzX0CLK9vP8wzi-44" value="&lt;span style=&quot;color: rgba(0, 0, 0, 0); font-family: monospace; font-size: 0px; text-align: start;&quot;&gt;%3CmxGraphModel%3E%3Croot%3E%3CmxCell%20id%3D%220%22%2F%3E%3CmxCell%20id%3D%221%22%20parent%3D%220%22%2F%3E%3CmxCell%20id%3D%222%22%20value%3D%22%22%20style%3D%22rounded%3D1%3BwhiteSpace%3Dwrap%3Bhtml%3D1%3B%22%20vertex%3D%221%22%20parent%3D%221%22%3E%3CmxGeometry%20x%3D%2240%22%20y%3D%22660%22%20width%3D%22335%22%20height%3D%2260%22%20as%3D%22geometry%22%2F%3E%3C%2FmxCell%3E%3C%2Froot%3E%3C%2FmxGraphModel%3E&lt;/span&gt;" style="verticalLabelPosition=bottom;shadow=0;dashed=0;align=center;html=1;verticalAlign=top;strokeWidth=1;shape=mxgraph.mockup.graphics.simpleIcon;strokeColor=#999999;" parent="WEwv4fRzX0CLK9vP8wzi-1" vertex="1">
          <mxGeometry x="475" y="900" width="50" height="50" as="geometry" />
        </mxCell>
        <mxCell id="WEwv4fRzX0CLK9vP8wzi-45" value="&lt;span style=&quot;color: rgba(0, 0, 0, 0); font-family: monospace; font-size: 0px; text-align: start;&quot;&gt;%3CmxGraphModel%3E%3Croot%3E%3CmxCell%20id%3D%220%22%2F%3E%3CmxCell%20id%3D%221%22%20parent%3D%220%22%2F%3E%3CmxCell%20id%3D%222%22%20value%3D%22%22%20style%3D%22rounded%3D1%3BwhiteSpace%3Dwrap%3Bhtml%3D1%3B%22%20vertex%3D%221%22%20parent%3D%221%22%3E%3CmxGeometry%20x%3D%2240%22%20y%3D%22660%22%20width%3D%22335%22%20height%3D%2260%22%20as%3D%22geometry%22%2F%3E%3C%2FmxCell%3E%3C%2Froot%3E%3C%2FmxGraphModel%3E&lt;/span&gt;" style="verticalLabelPosition=bottom;shadow=0;dashed=0;align=center;html=1;verticalAlign=top;strokeWidth=1;shape=mxgraph.mockup.graphics.simpleIcon;strokeColor=#999999;" parent="WEwv4fRzX0CLK9vP8wzi-1" vertex="1">
          <mxGeometry x="545" y="900" width="50" height="50" as="geometry" />
        </mxCell>
        <mxCell id="WEwv4fRzX0CLK9vP8wzi-46" value="&lt;span style=&quot;color: rgba(0, 0, 0, 0); font-family: monospace; font-size: 0px; text-align: start;&quot;&gt;%3CmxGraphModel%3E%3Croot%3E%3CmxCell%20id%3D%220%22%2F%3E%3CmxCell%20id%3D%221%22%20parent%3D%220%22%2F%3E%3CmxCell%20id%3D%222%22%20value%3D%22%22%20style%3D%22rounded%3D1%3BwhiteSpace%3Dwrap%3Bhtml%3D1%3B%22%20vertex%3D%221%22%20parent%3D%221%22%3E%3CmxGeometry%20x%3D%2240%22%20y%3D%22660%22%20width%3D%22335%22%20height%3D%2260%22%20as%3D%22geometry%22%2F%3E%3C%2FmxCell%3E%3C%2Froot%3E%3C%2FmxGraphModel%3E&lt;/span&gt;" style="verticalLabelPosition=bottom;shadow=0;dashed=0;align=center;html=1;verticalAlign=top;strokeWidth=1;shape=mxgraph.mockup.graphics.simpleIcon;strokeColor=#999999;" parent="WEwv4fRzX0CLK9vP8wzi-1" vertex="1">
          <mxGeometry x="615" y="900" width="50" height="50" as="geometry" />
        </mxCell>
        <mxCell id="WEwv4fRzX0CLK9vP8wzi-47" value="&lt;span style=&quot;color: rgba(0, 0, 0, 0); font-family: monospace; font-size: 0px; text-align: start;&quot;&gt;%3CmxGraphModel%3E%3Croot%3E%3CmxCell%20id%3D%220%22%2F%3E%3CmxCell%20id%3D%221%22%20parent%3D%220%22%2F%3E%3CmxCell%20id%3D%222%22%20value%3D%22%22%20style%3D%22rounded%3D1%3BwhiteSpace%3Dwrap%3Bhtml%3D1%3B%22%20vertex%3D%221%22%20parent%3D%221%22%3E%3CmxGeometry%20x%3D%2240%22%20y%3D%22660%22%20width%3D%22335%22%20height%3D%2260%22%20as%3D%22geometry%22%2F%3E%3C%2FmxCell%3E%3C%2Froot%3E%3C%2FmxGraphModel%3E&lt;/span&gt;" style="verticalLabelPosition=bottom;shadow=0;dashed=0;align=center;html=1;verticalAlign=top;strokeWidth=1;shape=mxgraph.mockup.graphics.simpleIcon;strokeColor=#999999;" parent="WEwv4fRzX0CLK9vP8wzi-1" vertex="1">
          <mxGeometry x="685" y="900" width="50" height="50" as="geometry" />
        </mxCell>
        <mxCell id="WEwv4fRzX0CLK9vP8wzi-48" value="Socials" style="text;html=1;align=center;verticalAlign=middle;whiteSpace=wrap;rounded=0;" parent="WEwv4fRzX0CLK9vP8wzi-1" vertex="1">
          <mxGeometry x="540" y="860" width="60" height="30" as="geometry" />
        </mxCell>
        <mxCell id="WEwv4fRzX0CLK9vP8wzi-49" value="Testimonials" style="text;html=1;align=center;verticalAlign=middle;whiteSpace=wrap;rounded=0;" parent="WEwv4fRzX0CLK9vP8wzi-1" vertex="1">
          <mxGeometry x="140" y="635" width="60" height="30" as="geometry" />
        </mxCell>
        <mxCell id="WEwv4fRzX0CLK9vP8wzi-50" value="" style="verticalLabelPosition=bottom;shadow=0;dashed=0;align=center;html=1;verticalAlign=top;strokeWidth=1;shape=mxgraph.mockup.graphics.simpleIcon;strokeColor=#999999;" parent="WEwv4fRzX0CLK9vP8wzi-1" vertex="1">
          <mxGeometry x="43" y="250" width="695" height="280" as="geometry" />
        </mxCell>
        <mxCell id="WEwv4fRzX0CLK9vP8wzi-51" value="Product Image Slider" style="text;html=1;align=center;verticalAlign=middle;whiteSpace=wrap;rounded=0;" parent="WEwv4fRzX0CLK9vP8wzi-1" vertex="1">
          <mxGeometry x="360" y="375" width="60" height="30" as="geometry" />
        </mxCell>
        <mxCell id="WEwv4fRzX0CLK9vP8wzi-57" value="" style="verticalLabelPosition=bottom;shadow=0;dashed=0;align=center;html=1;verticalAlign=top;strokeWidth=1;shape=mxgraph.mockup.navigation.pageControl;fillColor=#999999;strokeColor=#ddeeff;" parent="WEwv4fRzX0CLK9vP8wzi-1" vertex="1">
          <mxGeometry x="335" y="490" width="100" height="30" as="geometry" />
        </mxCell>
        <mxCell id="WEwv4fRzX0CLK9vP8wzi-59" value="" style="html=1;shadow=0;dashed=0;align=center;verticalAlign=middle;shape=mxgraph.arrows2.arrow;dy=0.6;dx=40;notch=0;rotation=-180;" parent="WEwv4fRzX0CLK9vP8wzi-1" vertex="1">
          <mxGeometry x="50" y="375" width="20" height="30" as="geometry" />
        </mxCell>
        <mxCell id="WEwv4fRzX0CLK9vP8wzi-58" value="" style="html=1;shadow=0;dashed=0;align=center;verticalAlign=middle;shape=mxgraph.arrows2.arrow;dy=0.6;dx=40;notch=0;" parent="WEwv4fRzX0CLK9vP8wzi-1" vertex="1">
          <mxGeometry x="715" y="375" width="20" height="30" as="geometry" />
        </mxCell>
        <mxCell id="WEwv4fRzX0CLK9vP8wzi-9" value="Home Page" style="text;strokeColor=none;fillColor=none;html=1;fontSize=24;fontStyle=1;verticalAlign=middle;align=center;" parent="1" vertex="1">
          <mxGeometry x="375" y="150" width="100" height="40" as="geometry" />
        </mxCell>
        <mxCell id="ubOW4hSzdmAgUuTb7ao--1" value="User Story:&amp;nbsp;&lt;strong style=&quot;background-color: initial;&quot;&gt;As a&lt;/strong&gt;&lt;span style=&quot;background-color: initial;&quot;&gt; customer,&lt;/span&gt;&lt;p&gt;&lt;strong&gt;I want to&lt;/strong&gt; quickly search for products, filter results, and easily complete my purchase,&lt;/p&gt;&lt;strong style=&quot;background-color: initial;&quot;&gt;So that&lt;/strong&gt;&lt;span style=&quot;background-color: initial;&quot;&gt; I can find what I need without frustration and make my shopping experience smooth.&lt;/span&gt;&amp;nbsp;" style="text;html=1;align=center;verticalAlign=middle;whiteSpace=wrap;rounded=0;" vertex="1" parent="1">
          <mxGeometry x="50" y="30" width="750" height="70" as="geometry" />
        </mxCell>
      </root>
    </mxGraphModel>
  </diagram>
</mxfile>
